<?xml version="1.0" encoding="utf-8"?>
<!-- Generator: Adobe Illustrator 22.0.1, SVG Export Plug-In . SVG Version: 6.00 Build 0)  -->
<svg version="1.1" id="Layer_1" xmlns="http://www.w3.org/2000/svg" xmlns:xlink="http://www.w3.org/1999/xlink" x="0px" y="0px"
	 viewBox="0 0 576 163.9" style="enable-background:new 0 0 576 163.9;" xml:space="preserve">
<style type="text/css">
	.st0{fill:#FFD16D;fill-opacity:0;}
	path{fill:#f1f6f9;}
</style>
<g>
	<rect x="1.1" y="1.1" class="st0" width="573.5" height="162"/>
</g>
<g>
	<path d="M136.1,92.4c4.3,5.6,6.5,12.6,6.5,20.8c0,11.6-4.5,20.6-13.6,26.9c-9,6.3-22.2,9.4-39.6,9.4H20.8V16.6h64.9
		c16.2,0,28.6,3.1,37.3,9.3c8.7,6.2,13,14.6,13,25.2c0,6.5-1.6,12.2-4.6,17.3c-3.1,5.1-7.4,9-13,12
		C125.9,82.7,131.8,86.7,136.1,92.4z M51.3,39.7V71h30.6c7.6,0,13.3-1.3,17.3-4c3.9-2.7,5.9-6.6,5.9-11.8c0-5.2-2-9.1-5.9-11.7
		c-3.9-2.6-9.7-3.9-17.3-3.9H51.3z M105.5,122.3c4.1-2.7,6.2-6.8,6.2-12.3c0-11-8.2-16.5-24.5-16.5H51.3v32.8h35.9
		C95.3,126.2,101.4,124.9,105.5,122.3z"/>
	<path d="M165.9,16.6h30.7v107.8h66.6v25h-97.4V16.6z"/>
	<path d="M305.3,142.8c-11.1-5.9-19.7-14.1-26-24.6S269.9,96,269.9,83c0-13,3.1-24.8,9.4-35.2s14.9-18.6,26-24.6
		c11.1-5.9,23.5-8.9,37.3-8.9c13.8,0,26.2,3,37.2,8.9c11,5.9,19.7,14.1,26,24.6c6.3,10.4,9.5,22.2,9.5,35.2c0,13-3.2,24.8-9.5,35.2
		c-6.3,10.4-15,18.6-26,24.6c-11,5.9-23.4,8.9-37.2,8.9C328.8,151.7,316.4,148.7,305.3,142.8z M363.9,120.1
		c6.3-3.6,11.3-8.6,14.9-15.1c3.6-6.5,5.4-13.8,5.4-22c0-8.2-1.8-15.6-5.4-22c-3.6-6.5-8.6-11.5-14.9-15.1
		c-6.3-3.6-13.4-5.4-21.3-5.4c-7.8,0-14.9,1.8-21.3,5.4c-6.3,3.6-11.3,8.6-14.9,15.1c-3.6,6.5-5.4,13.8-5.4,22
		c0,8.2,1.8,15.6,5.4,22c3.6,6.5,8.6,11.5,14.9,15.1c6.3,3.6,13.4,5.4,21.3,5.4C350.4,125.5,357.5,123.7,363.9,120.1z"/>
	<path d="M528.2,80.9h28.1v53.9c-7.2,5.4-15.6,9.6-25,12.5c-9.5,2.9-19,4.4-28.7,4.4c-13.8,0-26.2-2.9-37.2-8.8
		c-11-5.9-19.6-14-25.9-24.5s-9.4-22.2-9.4-35.4c0-13.2,3.1-25,9.4-35.4s15-18.6,26.1-24.5c11.1-5.9,23.7-8.8,37.6-8.8
		c11.6,0,22.2,2,31.7,5.9c9.5,3.9,17.5,9.6,23.9,17.1L539,55.5c-9.5-10-20.9-15-34.3-15c-8.5,0-16,1.8-22.6,5.3
		c-6.6,3.5-11.7,8.5-15.4,15c-3.7,6.5-5.5,13.9-5.5,22.2c0,8.2,1.8,15.6,5.5,22c3.7,6.5,8.8,11.5,15.3,15.1
		c6.5,3.6,13.9,5.4,22.3,5.4c8.9,0,16.8-1.9,23.9-5.7V80.9z"/>
</g>
</svg>
