<svg xmlns="http://www.w3.org/2000/svg" viewBox="0 0 65.76 59.75"><defs><style>.cls-1{isolation:isolate;}.cls-2{fill:#feb73b;}.cls-2,.cls-3,.cls-4,.cls-6{fill-rule:evenodd;}.cls-3{fill:#fefefe;}.cls-4{fill:#408de4;}.cls-5,.cls-6{fill:#fff;}</style></defs><title>header-questions</title><g id="Shape_513_copy" data-name="Shape 513 copy" class="cls-1"><g id="Shape_513_copy-2" data-name="Shape 513 copy"><path class="cls-2" d="M66.24,18.05C66.24,8.35,56.43.48,44.32.48S22.4,8.35,22.4,18.05c0,9.35,9.1,17,20.59,17.54,2.68,3.83,6.59,8.16,10.56,8.16-2.06-1.83-3.37-5.5-4.16-8.6C59.05,33.31,66.24,26.36,66.24,18.05Z" transform="translate(-0.48 -0.48)"/></g></g><g id="_" data-name="?" class="cls-1"><g id="_2" data-name="?"><path class="cls-3" d="M44.3,21.37a2,2,0,0,0-1.43.53,1.75,1.75,0,0,0-.56,1.33,1.81,1.81,0,0,0,.57,1.34,2.11,2.11,0,0,0,2.84,0,1.81,1.81,0,0,0,.57-1.34,1.75,1.75,0,0,0-.56-1.33A2,2,0,0,0,44.3,21.37Zm3.6-10.22a6.5,6.5,0,0,0-3.83-1,7.84,7.84,0,0,0-3.52.73,5.83,5.83,0,0,0-2.36,2.06l2.52,1.48a3.49,3.49,0,0,1,3-1.54,2.76,2.76,0,0,1,1.63.44A1.43,1.43,0,0,1,46,14.52a1.59,1.59,0,0,1-.32,1,7.76,7.76,0,0,1-1,1,9.54,9.54,0,0,0-1.42,1.56,3.07,3.07,0,0,0-.49,1.79h3.14a1.79,1.79,0,0,1,.35-1.13,9.46,9.46,0,0,1,1.12-1.16,13,13,0,0,0,1.05-1,3.91,3.91,0,0,0,.69-1.09,3.86,3.86,0,0,0,.28-1.5A3.28,3.28,0,0,0,47.9,11.15Z" transform="translate(-0.48 -0.48)"/></g></g><g id="Shape_513" data-name="Shape 513" class="cls-1"><g id="Shape_513-2" data-name="Shape 513"><path class="cls-4" d="M13.43,60.13c2-2,3.28-5.66,4-8.47l0-.1-.1,0C7.47,49.66.58,42.67.58,34.54c0-9.64,9.79-17.47,21.82-17.47S44.22,24.9,44.22,34.54c0,9.23-9,16.89-20.5,17.44C21.11,55.64,17.3,60,13.43,60.13Z" transform="translate(-0.48 -0.48)"/><path class="cls-5" d="M22.4,17.17c12,0,21.72,7.79,21.72,17.37,0,9.17-9,16.79-20.4,17.34h-.1l-.05.08c-2.47,3.52-6.13,7.69-9.88,8,1.93-2,3.14-5.59,3.83-8.33l.05-.2-.2,0C7.54,49.57.68,42.62.68,34.54.68,25,10.42,17.17,22.4,17.17m0-.2C10.29,17,.48,24.83.48,34.54c0,8.3,7.19,15.26,16.85,17.09-.79,3.11-2.1,6.77-4.16,8.6h0c4,0,7.87-4.33,10.55-8.15,11.49-.55,20.59-8.19,20.59-17.54C44.32,24.83,34.51,17,22.4,17Z" transform="translate(-0.48 -0.48)"/></g></g><g id="Ellipse_1" data-name="Ellipse 1" class="cls-1"><g id="Ellipse_1-2" data-name="Ellipse 1"><path class="cls-6" d="M16.58,32.08a2.41,2.41,0,1,0,2.4,2.4A2.39,2.39,0,0,0,16.58,32.08Z" transform="translate(-0.48 -0.48)"/></g></g><g id="Ellipse_1_copy" data-name="Ellipse 1 copy" class="cls-1"><g id="Ellipse_1_copy-2" data-name="Ellipse 1 copy"><path class="cls-6" d="M22.74,32.08a2.41,2.41,0,1,0,2.4,2.4A2.4,2.4,0,0,0,22.74,32.08Z" transform="translate(-0.48 -0.48)"/></g></g><g id="Ellipse_1_copy_2" data-name="Ellipse 1 copy 2" class="cls-1"><g id="Ellipse_1_copy_2-2" data-name="Ellipse 1 copy 2"><path class="cls-6" d="M28.91,32.08a2.41,2.41,0,1,0,2.4,2.4A2.39,2.39,0,0,0,28.91,32.08Z" transform="translate(-0.48 -0.48)"/></g></g></svg>