<svg id="Layer_1" data-name="Layer 1" xmlns="http://www.w3.org/2000/svg" viewBox="0 0 123.25 22.73"><defs><style>.cls-1{isolation:isolate;}.cls-2{fill:#bc7042;}.cls-3{fill:none;stroke:#bc7042;stroke-linecap:round;stroke-linejoin:round;stroke-width:1.5px;}</style></defs><title>watch-video-text-mobi</title><g id="Watch_video" data-name="Watch video" class="cls-1"><g id="Watch_video-2" data-name="Watch video"><path class="cls-2" d="M48.33,1.33c0-.2,0-.3-.1-.4s-.1-.2-.2-.3a.76.76,0,0,0-.4-.2.37.37,0,0,0-.3.1,1.83,1.83,0,0,0-.6.8,22.47,22.47,0,0,0-.9,2.6c-1.2,2.9-2.3,5.1-3.1,6.8a9.88,9.88,0,0,1-.9,1.5c-.3.4-.6.9-1,1.5a.44.44,0,0,1-.3.1c-.2,0-.3-.1-.3-.2a5.76,5.76,0,0,1-.1-1.5,16.83,16.83,0,0,1,.2-2c.1-.7.3-1.6.6-2.8l.3-1.5a8.3,8.3,0,0,1,.6-2.1c.1-.3.2-.7.3-1a4.08,4.08,0,0,0,.2-.7.75.75,0,0,0,.1-.5v-.4c-.1-.3-.3-.4-.4-.6a1.42,1.42,0,0,0-.6-.2c-.1,0-.2.2-.4.5a13.09,13.09,0,0,0-.7,1.3c-.1.1-.1.2-.2.3s-.1.2-.2.3l-.5,1a12.28,12.28,0,0,0-.9,1.8c-1.3,2.6-2.5,4.7-3.4,6.3a5.58,5.58,0,0,1-.5.8.91.91,0,0,1-.5.3c-.1,0,0-.5.1-1.5s.3-1.9.4-2.7a26.05,26.05,0,0,1,1.6-6.3,2.92,2.92,0,0,0,.2-.9,1.22,1.22,0,0,0-.3-.9.55.55,0,0,0-.5-.3.76.76,0,0,0-.4.2.85.85,0,0,0-.2.6l-.2.7a11.06,11.06,0,0,1-.4,1.3l-.5,2.3c-.3,1.6-.6,2.7-.7,3.4a14.46,14.46,0,0,0-.5,3,9.18,9.18,0,0,0-.1,2.2v.3a1.33,1.33,0,0,0,.3.7.86.86,0,0,0,.6.3,1.82,1.82,0,0,0,1.1-.5,6.15,6.15,0,0,0,1.1-1.4,9.22,9.22,0,0,0,.5-.8,36.53,36.53,0,0,0,2.2-4.1c.1-.2.2-.3.2-.5a1.69,1.69,0,0,0,.2-.5,10.91,10.91,0,0,1,.6-1.1,2.48,2.48,0,0,1,.4-.6v.3a2.54,2.54,0,0,1-.2.7c-.2.9-.4,1.6-.5,2.2a11.08,11.08,0,0,0-.2,1.9c0,.7-.1,1.2-.1,1.7a9.89,9.89,0,0,0,.1,1.5c0,.2.1.3.2.5a1.38,1.38,0,0,0,.3.4c.1.1.2.3.3.4a.9.9,0,0,0,.5.1,2.91,2.91,0,0,0,1-.5,4.66,4.66,0,0,0,1.4-1.4c.4-.5.9-1.4,1.7-2.7a8.8,8.8,0,0,0,1.1-2.3.76.76,0,0,1,.1-.4,1.24,1.24,0,0,1,.2-.3,1.55,1.55,0,0,0,.3-.6,30.13,30.13,0,0,0,1.2-3C47.83,2.73,48.23,1.83,48.33,1.33Zm7.3,10.9a.86.86,0,0,1-.6-.3.66.66,0,0,1-.4-.5,3,3,0,0,1-.5-1.6,5.16,5.16,0,0,1,.2-1.1l.4-1.1-.8-.7c-.6-.5-.9-.8-1-.9a1.45,1.45,0,0,0-.7-.2,1.67,1.67,0,0,0-1.1.4,7.74,7.74,0,0,0-1.2,1c-.5.5-.7.8-.7.9v.1c-.1,0-.1,0-.2.1s-.1.1-.1.2a1.73,1.73,0,0,1-.3.4,2.19,2.19,0,0,1-.3.5,15,15,0,0,0-.9,1.8,4.91,4.91,0,0,0-.3,1.2v.2c.1.1.1.2.1.4a.31.31,0,0,0,.1.2c.1.1.2.2.2.3a1.88,1.88,0,0,0,.8.2c.9,0,2.1-.8,3.7-2.4.1-.1.2-.3.4-.4a1.38,1.38,0,0,1,.3-.4c0,.1.1.2.2.5a1.69,1.69,0,0,1,.2.5c.6,1.2,1.4,1.8,2.2,1.8h.3c.3-.1.4-.2.4-.5S56,12.23,55.63,12.23Zm-3-3.4a13.49,13.49,0,0,1-2.7,2.8c-.2.2-.5.3-.7.5a1.42,1.42,0,0,1-.6.2c-.2,0-.2,0-.2-.1s.1-.2.2-.5a4.88,4.88,0,0,1,.3-.7,12.71,12.71,0,0,1,1.8-2.7c.6-.8,1.1-1.1,1.4-1.1a.76.76,0,0,1,.4.2c.2.1.3.4.5.7Zm10.7-3.7h-.4a4.59,4.59,0,0,1-1,.1c-.2,0-.3-.1-.3-.2s.1-.2.2-.4.2-.4.4-.7c.1-.1.1-.2.2-.4a.76.76,0,0,0,.2-.5c.1-.2.2-.3.2-.4s0-.1-.1-.2-.1-.1-.1-.2a.86.86,0,0,0-.6-.3.76.76,0,0,0-.4.2l-.4.4a1.24,1.24,0,0,1-.2.3c-.1.2-.3.4-.4.6s-.2.3-.2.4-.1.3-.2.5-.1.3-.2.4-.2.3-.3.3-.5.1-1,.1h-.3c-.1,0-.2.1-.3.2s-.2.3-.2.4,0,.2.1.2l.2.2.9.2-.6,1.3-.2,1.2-.4,1.2a2.22,2.22,0,0,0-.1.9c0,.4-.1.7-.1,1.1s0,.7.1.7l.1.1v.1a1.53,1.53,0,0,0,.5.7,1.53,1.53,0,0,0,.7.5c.2,0,.4.1.6.1a4.9,4.9,0,0,0,2.5-.8,1.83,1.83,0,0,0,.8-.6,1.42,1.42,0,0,0,.2-.6c-.1-.3-.2-.4-.4-.4s-.1,0-.2.1a.35.35,0,0,1-.2.1c-.1.1-.2.1-.4.2a8.92,8.92,0,0,1-1,.5,5.07,5.07,0,0,1-1.3.2c-.3,0-.6,0-.7-.1a.59.59,0,0,1-.2-.5v-.4a23.69,23.69,0,0,1,.9-3.6,2.66,2.66,0,0,0,.4-.8,5.2,5.2,0,0,0,.3-.5c.1-.1.1-.2.2-.3s.1-.1.2-.1a.37.37,0,0,0,.3-.1h.3a6.15,6.15,0,0,0,1.4-.1c.5,0,.8,0,.9-.1s.2-.2.2-.4v-.3C64,5.33,63.83,5.13,63.33,5.13Zm7.4,5.6c-.2,0-.3,0-.4.1s-.2.1-.3.3c-.1,0-.2.1-.3.2s-.2.2-.3.2c-.6.4-1.1.8-1.5,1a2.68,2.68,0,0,1-1.1.2h-.5a.35.35,0,0,1-.1-.2v-.3a2.81,2.81,0,0,1,.1-.8,11.76,11.76,0,0,1,1.1-2.9A4.29,4.29,0,0,1,68.93,7a.37.37,0,0,1,.3-.1c.2,0,.3.1.3.4a1.09,1.09,0,0,1-.1.5c-.1.2-.1.5-.2.7a.76.76,0,0,0-.1.4c0,.1.1.2.2.3a.37.37,0,0,0,.3.1c.1,0,.1,0,.1-.1s.1-.1.2-.1a.54.54,0,0,0,.4-.3,4.88,4.88,0,0,0,.3-.7.75.75,0,0,0,.1-.5,1.7,1.7,0,0,0-.1-.7,1.24,1.24,0,0,0-.2-.3l-.1-.1c0-.2-.1-.3-.4-.5a1.33,1.33,0,0,0-.8-.3,3,3,0,0,0-1,.2,3,3,0,0,0-.7.5,9,9,0,0,0-.9,1c-.3.6-.7,1.4-1.1,2.4a5.49,5.49,0,0,0-.4,2.4,2,2,0,0,0,.5,1.4,1.9,1.9,0,0,0,1.3.5h.5c.3-.1.6-.2,1.1-.4s.7-.3.7-.4,0-.1.1-.1h.2c.1,0,.3-.1.6-.4s.6-.5.9-.8.4-.5.3-.5v-.1h.1c.1-.1.1-.1,0-.2A1.33,1.33,0,0,0,70.73,10.73ZM81.43,12c-.1,0-.2-.1-.3-.2a.31.31,0,0,1-.2-.1h-.6l.1-.7a1.27,1.27,0,0,1,.1-.6,4.33,4.33,0,0,1,.1-.5,1.7,1.7,0,0,0,.1-.7,1.5,1.5,0,0,0-.4-1.1c-.2-.2-.3-.4-.4-.5s-.2-.1-.4-.1a2.77,2.77,0,0,0-.9.1c-.3.1-.5.2-.5.3V8H78c-.2,0-.2,0-.2.1l-.2.2c-.1.1-.3.2-.4.3a11.73,11.73,0,0,0-1.5,1.2,4.35,4.35,0,0,0-.6.7,3.81,3.81,0,0,1-.5.6,8.15,8.15,0,0,1,.4-1.4,3.23,3.23,0,0,0,.2-.9l.2-.5c.1-.1.1-.2.2-.4s.1-.2.1-.3c.2-.5.6-1.4,1.1-2.8.1-.2.2-.6.5-1.3a8.36,8.36,0,0,1,.7-1.6,1.27,1.27,0,0,0,.1-.6,2.35,2.35,0,0,0-.2-.8.55.55,0,0,0-.5-.3.27.27,0,0,0-.3.3l-.3,1c-.1.3-.4,1.1-.9,2.5l-.6,1.8c-.3.9-.6,1.5-.7,2a2.6,2.6,0,0,1-.3.7,2.66,2.66,0,0,0-.3,1.2c-.1.4-.2.9-.4,1.5l-.2.7c-.1.5-.2.7-.2.8s0,.2.1.2.1.1.2.2a.76.76,0,0,0,.5.2h-.2a.76.76,0,0,0,.4-.2c.2-.1.3-.3.6-.6a10,10,0,0,1,1.4-1.6A10.15,10.15,0,0,1,78,9.63a2.43,2.43,0,0,1,1.2-.5c.2,0,.2.2.2.5v.7l-.1.7a2.49,2.49,0,0,0-.1.8,2.08,2.08,0,0,0,.5,1.2,1.33,1.33,0,0,0,.8.3,1.61,1.61,0,0,0,.9-.3c.1-.1.2-.1.2-.2a.31.31,0,0,0,.1-.2C81.63,12,81.63,12,81.43,12Zm14-4.9h-.2c-.1,0-.2.1-.4.3s-.3.3-.5.6a1.73,1.73,0,0,0-.3.4,2.36,2.36,0,0,0-.6.9c-.1.2-.4.5-.7,1a4.5,4.5,0,0,1-.9,1c-.1.1-.1.1-.2.1s-.1,0-.2-.1-.1-.2-.2-.3a3.93,3.93,0,0,0-.2-.6,3.59,3.59,0,0,1-.2-1.1c-.3-1.7-.5-2.5-.9-2.7h-.3a.35.35,0,0,0-.2.1.6.6,0,0,0-.3.6,1.34,1.34,0,0,0,.1.5,3.46,3.46,0,0,1,.3,1.2,12.88,12.88,0,0,0,.6,2.5,3.1,3.1,0,0,0,.6,1.5.76.76,0,0,0,.4.2c.2,0,.5-.2,1-.7.2-.2.4-.5.6-.6s.3-.3.4-.3.4-.5.9-1.1.7-1,.9-1.3a1.24,1.24,0,0,0,.2-.3,2.19,2.19,0,0,1,.3-.5,1.79,1.79,0,0,0,.4-.8C95.73,7.23,95.63,7.13,95.43,7.13Zm3.6.6c-.1-.1-.1-.1-.2-.1h-.2a.37.37,0,0,0-.3.1c-.1.1-.1.1-.1.2-.4,1.5-.8,2.5-1,3.1-.1.4-.2.6-.2.7v.5c-.2.1-.2.2-.2.4a1.22,1.22,0,0,0,.3.9c.2.2.3.3.4.3a.22.22,0,0,0,.2-.2,1.55,1.55,0,0,0,.2-.8,1.42,1.42,0,0,0,.2-.6,1.34,1.34,0,0,0,.1-.5,7.6,7.6,0,0,1,.4-1.1,7.6,7.6,0,0,1,.4-1.1,2.24,2.24,0,0,0,.3-1c0-.2,0-.3-.1-.4A1.09,1.09,0,0,0,99,7.73Zm1-5.2a.37.37,0,0,0-.3.1c-.1,0-.1,0-.2.1s-.1.1-.1.2a1.42,1.42,0,0,1-.2.6q-.15.3-.3.3c-.1,0-.1.1,0,.4a2.19,2.19,0,0,0,.3.5c.2.1.3.2.5.2s.4-.2.7-.5.3-.4.4-.5a.6.6,0,0,0,.1-.4,1.09,1.09,0,0,0-.1-.5C100.53,2.63,100.33,2.53,100,2.53Zm10.5-1.2a.37.37,0,0,0-.1-.3c-.2-.4-.4-.7-.7-.7a.76.76,0,0,0-.4.1,5.92,5.92,0,0,0-.4.6c-.3.7-.6,1.3-.8,1.9s-.5,1.3-.8,2.3c-.1.4-.3,1-.5,1.7,0,.2-.1.3-.1.4s-.1.1-.2.1a3.93,3.93,0,0,1-.6-.2,2.28,2.28,0,0,0-1.1-.3,2.61,2.61,0,0,0-2.1,1.4,7.84,7.84,0,0,0-1.1,1.8,5,5,0,0,0-.4,1.9.75.75,0,0,0,.1.5,2.65,2.65,0,0,0,.5.6,1.08,1.08,0,0,0,.7.3,2.66,2.66,0,0,0,1.2-.3,5.51,5.51,0,0,0,1.4-.9l.8-.7v.9a5.66,5.66,0,0,0,.3,1.8c.1.4.4.6.7.5s.3,0,.3-.1.1-.1.1-.3a2,2,0,0,0-.1-.7V13a18.55,18.55,0,0,1,.1-2.2q.15-1.35.3-2.1a28.68,28.68,0,0,1,1.3-3.8,17.31,17.31,0,0,1,1.4-3.2C110.43,1.53,110.53,1.43,110.53,1.33Zm-4.6,9a3,3,0,0,1-.8.8,3.81,3.81,0,0,0-.6.5,4,4,0,0,1-1.2.7h-.4c-.3,0-.5-.1-.4-.4a8.39,8.39,0,0,1,.7-1.9,3.45,3.45,0,0,1,1-1.3,1.61,1.61,0,0,1,1.1-.5.76.76,0,0,1,.5.2,1.76,1.76,0,0,1,.4.5,1.27,1.27,0,0,1,.1.6A5.94,5.94,0,0,0,105.93,10.33Zm9.5-4.2a6.37,6.37,0,0,0-.7-.2h-.6a1.42,1.42,0,0,0-.6.2,8,8,0,0,0-1.4.9,9.55,9.55,0,0,0-1.2,1.6,3.69,3.69,0,0,0-.5,1.7v.9a3.75,3.75,0,0,0,.1,1.1,2,2,0,0,0,.4.8,2.7,2.7,0,0,0,.8.7,1.93,1.93,0,0,0,1,.3,2.11,2.11,0,0,0,1.3-.5,5.55,5.55,0,0,0,.8-.6,2.65,2.65,0,0,0,.5-.6c.1-.2,0-.3-.1-.3a.35.35,0,0,0-.2-.1c-.1-.1-.1-.1-.2-.1h-.1c-.1,0-.1.1-.2.1l-.1.1-.2.2c-.1.1-.2.1-.2.2l-.4.2a1.42,1.42,0,0,1-.6.2,2.25,2.25,0,0,1-.7-.1c-.5-.1-.7-.5-.7-1.2v-.4a5.63,5.63,0,0,1,.2-1q.15-.3.3-.3a.37.37,0,0,1,.3.1,1.8,1.8,0,0,0,1.1.3,2.77,2.77,0,0,0,.9-.1,4.86,4.86,0,0,0,1.4-1.1,2.52,2.52,0,0,0,.7-1.2,2.11,2.11,0,0,0-.5-1.3A7.37,7.37,0,0,0,115.43,6.13Zm-.7,2.2a2.31,2.31,0,0,1-.7.5,2,2,0,0,1-.8.1c-.5,0-.8-.1-.8-.2a1,1,0,0,1,.2-.5,5,5,0,0,1,.7-.8,2.31,2.31,0,0,1,.7-.5h.4a.69.69,0,0,1,.7.6A2.85,2.85,0,0,1,114.73,8.33Zm9-1.3a1.85,1.85,0,0,0-.8-.7l-.3-.3a.37.37,0,0,0-.3-.1,1.76,1.76,0,0,0-.6.1l-.9.3a2.76,2.76,0,0,0-.9.7,8.18,8.18,0,0,0-.8.9c-.3.4-.5.7-.7,1a3.7,3.7,0,0,0-.5,1.1c-.1.4-.2.7-.2.8s0,.2-.1.2a.1.1,0,0,1-.1.1v.1c0,.1,0,.1.1.1v.2a.37.37,0,0,1-.1.3V12a2.06,2.06,0,0,0,.7,1.4c.2.2.3.3.4.3s.2.1.4.1a2.92,2.92,0,0,0,.9-.2,1.77,1.77,0,0,0,.8-.5,6.29,6.29,0,0,0,1.1-.8,5.31,5.31,0,0,0,.9-1.1,5.11,5.11,0,0,0,1.1-3.1A1.07,1.07,0,0,0,123.73,7Zm-1.1,2.1a8.1,8.1,0,0,1-.6,1.3c-.2.3-.5.7-.8,1.1q-1,1.2-1.8,1.2a.52.52,0,0,1-.4-.2.76.76,0,0,1-.2-.5,2.92,2.92,0,0,1,.2-.9,18.58,18.58,0,0,1,1-2,4.73,4.73,0,0,1,1.1-1.3,1.43,1.43,0,0,1,1-.4.6.6,0,0,1,.4.1,1,1,0,0,1,.2.7C122.73,8.63,122.63,8.93,122.63,9.13Z" transform="translate(-0.69 -0.23)"/></g></g><g id="Shape_3" data-name="Shape 3" class="cls-1"><path class="cls-3" d="M1.44,10.54A48.78,48.78,0,0,0,23.69,21.72c13.16,2.51,20.62-5.49,20.62-5.49" transform="translate(-0.69 -0.23)"/><polyline class="cls-3" points="13.08 11.88 0.75 10.3 3.82 20.22"/></g></svg>